<?xml version="1.0" standalone="no"?>
<!DOCTYPE svg PUBLIC "-//W3C//DTD SVG 1.1//EN" "http://www.w3.org/Graphics/SVG/1.1/DTD/svg11.dtd" >
<svg xmlns="http://www.w3.org/2000/svg">
<metadata>Generated by IcoMoon</metadata>
<defs>
<font id="unipin-icon-v5" horiz-adv-x="1024">
<font-face units-per-em="1024" ascent="960" descent="-64" />
<missing-glyph horiz-adv-x="1024" />
<glyph unicode="&#x20;" horiz-adv-x="512" d="" />
<glyph unicode="&#xe900;" glyph-name="About-Us-Original" d="M554.667 832h-426.667c-46.933 0-85.333-38.4-85.333-85.333v-597.333c0-46.933 38.4-85.333 85.333-85.333h341.333c0 102.4 51.2 196.267 132.267 247.467-29.867 38.4-46.933 85.333-46.933 136.533 0 68.267 34.133 132.267 85.333 170.667v128c0 46.933-38.4 85.333-85.333 85.333zM298.667 256c0-12.8-8.533-21.333-21.333-21.333h-42.667c-12.8 0-21.333 8.533-21.333 21.333v42.667c0 12.8 8.533 21.333 21.333 21.333h42.667c12.8 0 21.333-8.533 21.333-21.333v-42.667zM298.667 426.667c0-12.8-8.533-21.333-21.333-21.333h-42.667c-12.8 0-21.333 8.533-21.333 21.333v42.667c0 12.8 8.533 21.333 21.333 21.333h42.667c12.8 0 21.333-8.533 21.333-21.333v-42.667zM298.667 597.333c0-12.8-8.533-21.333-21.333-21.333h-42.667c-12.8 0-21.333 8.533-21.333 21.333v42.667c0 12.8 8.533 21.333 21.333 21.333h42.667c12.8 0 21.333-8.533 21.333-21.333v-42.667zM469.333 256c0-12.8-8.533-21.333-21.333-21.333h-42.667c-12.8 0-21.333 8.533-21.333 21.333v42.667c0 12.8 8.533 21.333 21.333 21.333h42.667c12.8 0 21.333-8.533 21.333-21.333v-42.667zM469.333 426.667c0-12.8-8.533-21.333-21.333-21.333h-42.667c-12.8 0-21.333 8.533-21.333 21.333v42.667c0 12.8 8.533 21.333 21.333 21.333h42.667c12.8 0 21.333-8.533 21.333-21.333v-42.667zM469.333 597.333c0-12.8-8.533-21.333-21.333-21.333h-42.667c-12.8 0-21.333 8.533-21.333 21.333v42.667c0 12.8 8.533 21.333 21.333 21.333h42.667c12.8 0 21.333-8.533 21.333-21.333v-42.667zM896 448c0-38.4-17.067-72.533-42.667-98.133-21.333-21.333-51.2-29.867-85.333-29.867s-59.733 12.8-85.333 29.867c-4.267 4.267-8.533 8.533-12.8 12.8-17.067 25.6-29.867 55.467-29.867 85.333 0 72.533 55.467 128 128 128s128-55.467 128-128zM981.333 64h-426.667c0 68.267 34.133 132.267 85.333 170.667 12.8 8.533 21.333 17.067 34.133 21.333 29.867 12.8 59.733 21.333 93.867 21.333s64-8.533 93.867-21.333c72.533-34.133 119.467-106.667 119.467-192z" />
<glyph unicode="&#xe901;" glyph-name="Account-Balance" d="M170.667 469.333v-170.667c0-35.413 28.587-64 64-64s64 28.587 64 64v170.667c0 35.413-28.587 64-64 64s-64-28.587-64-64zM426.667 469.333v-170.667c0-35.413 28.587-64 64-64s64 28.587 64 64v170.667c0 35.413-28.587 64-64 64s-64-28.587-64-64zM149.333 21.333h682.667c35.413 0 64 28.587 64 64s-28.587 64-64 64h-682.667c-35.413 0-64-28.587-64-64s28.587-64 64-64zM682.667 469.333v-170.667c0-35.413 28.587-64 64-64s64 28.587 64 64v170.667c0 35.413-28.587 64-64 64s-64-28.587-64-64zM450.987 896.426l-337.067-177.493c-17.493-8.96-28.587-27.307-28.587-46.933 0-29.44 23.893-53.333 53.333-53.333h704.427c29.013 0 52.907 23.893 52.907 53.333 0 19.627-11.093 37.973-28.587 46.933l-337.067 177.493c-24.747 13.227-54.613 13.227-79.36 0z" />
<glyph unicode="&#xe902;" glyph-name="Account-Circle" d="M512 874.667c-235.52 0-426.667-191.147-426.667-426.667s191.147-426.667 426.667-426.667c235.52 0 426.667 191.147 426.667 426.667s-191.147 426.667-426.667 426.667zM512 746.667c70.827 0 128-57.173 128-128s-57.173-128-128-128c-70.827 0-128 57.173-128 128s57.173 128 128 128zM512 140.8c-106.667 0-200.96 54.613-256 137.387 1.28 84.907 170.667 131.413 256 131.413 84.907 0 254.72-46.507 256-131.413-55.040-82.773-149.333-137.387-256-137.387z" />
<glyph unicode="&#xe903;" glyph-name="Activity-Feed-Original" d="M810.667 832h-597.333c-46.933 0-85.333-38.4-85.333-85.333v-597.333c0-46.933 38.4-85.333 85.333-85.333h597.333c46.933 0 85.333 38.4 85.333 85.333v597.333c0 46.933-38.4 85.333-85.333 85.333zM341.333 661.333h341.333c25.6 0 42.667-17.067 42.667-42.667s-17.067-42.667-42.667-42.667h-341.333c-25.6 0-42.667 17.067-42.667 42.667s17.067 42.667 42.667 42.667zM725.333 448c0-25.6-17.067-42.667-42.667-42.667h-341.333c-25.6 0-42.667 17.067-42.667 42.667s17.067 42.667 42.667 42.667h341.333c25.6 0 42.667-17.067 42.667-42.667zM682.667 234.667h-341.333c-25.6 0-42.667 17.067-42.667 42.667s17.067 42.667 42.667 42.667h341.333c25.6 0 42.667-17.067 42.667-42.667s-17.067-42.667-42.667-42.667z" />
<glyph unicode="&#xe904;" glyph-name="Add-Box" d="M810.667 832h-597.333c-47.36 0-85.333-38.4-85.333-85.333v-597.333c0-46.933 37.973-85.333 85.333-85.333h597.333c46.933 0 85.333 38.4 85.333 85.333v597.333c0 46.933-38.4 85.333-85.333 85.333zM682.667 405.333h-128v-128c0-23.467-19.2-42.667-42.667-42.667s-42.667 19.2-42.667 42.667v128h-128c-23.467 0-42.667 19.2-42.667 42.667s19.2 42.667 42.667 42.667h128v128c0 23.467 19.2 42.667 42.667 42.667s42.667-19.2 42.667-42.667v-128h128c23.467 0 42.667-19.2 42.667-42.667s-19.2-42.667-42.667-42.667z" />
<glyph unicode="&#xe905;" glyph-name="Add-Circle" d="M512 874.667c-235.52 0-426.667-191.147-426.667-426.667s191.147-426.667 426.667-426.667c235.52 0 426.667 191.147 426.667 426.667s-191.147 426.667-426.667 426.667zM682.667 405.333h-128v-128c0-23.467-19.2-42.667-42.667-42.667s-42.667 19.2-42.667 42.667v128h-128c-23.467 0-42.667 19.2-42.667 42.667s19.2 42.667 42.667 42.667h128v128c0 23.467 19.2 42.667 42.667 42.667s42.667-19.2 42.667-42.667v-128h128c23.467 0 42.667-19.2 42.667-42.667s-19.2-42.667-42.667-42.667z" />
<glyph unicode="&#xe906;" glyph-name="Android-OS-Original" d="M320 917.333c-5.461 0-10.924-2.090-15.084-6.25-8.32-8.32-8.32-21.847 0-30.167l55.917-55.916c-63.485-46.586-104.833-121.544-104.833-206.333h512c0 84.789-41.348 159.747-104.832 206.333l55.915 55.916c8.32 8.363 8.32 21.804 0 30.167-8.32 8.32-21.845 8.32-30.165 0l-63.249-63.25c-34.283 17.039-72.785 26.833-113.668 26.833s-79.386-9.795-113.667-26.833l-63.25 63.25c-4.16 4.16-9.622 6.25-15.084 6.25zM384 746.667h42.667v-42.667h-42.667v42.667zM597.333 746.667h42.667v-42.667h-42.667v42.667zM170.667 576c-23.552 0-42.667-19.115-42.667-42.667v-256c0-23.552 19.115-42.667 42.667-42.667s42.667 19.115 42.667 42.667v256c0 23.552-19.115 42.667-42.667 42.667zM256 576v-341.333c0-23.552 19.115-42.667 42.667-42.667h42.667v-149.333c0-35.328 28.672-64 64-64s64 28.672 64 64v149.333h85.333v-149.333c0-35.328 28.672-64 64-64s64 28.672 64 64v149.333h42.667c23.552 0 42.667 19.115 42.667 42.667v341.333h-512zM853.333 576c-23.552 0-42.667-19.115-42.667-42.667v-256c0-23.552 19.115-42.667 42.667-42.667s42.667 19.115 42.667 42.667v256c0 23.552-19.115 42.667-42.667 42.667z" />
<glyph unicode="&#xe907;" glyph-name="Apple-Logo-Original" d="M678.583 914c-2.598 0.4-5.551 0.15-8.751-0.916-42.667-8.533-89.549-34.133-119.415-64-25.6-25.6-46.916-68.267-46.916-106.667 0-8.533 8.465-17.083 16.998-17.083 46.933 4.267 93.884 29.883 123.75 59.75 25.6 34.133 46.916 72.517 46.916 110.917 0 9.6-4.783 16.8-12.582 18zM691.166 729.583c-76.8 0-110.882-46.917-162.082-46.917-55.467 0-106.667 42.667-170.667 42.667-89.6 0-226.167-85.317-226.167-281.583-4.267-179.2 157.883-379.75 251.75-379.75 55.467 0 68.284 34.167 145.084 34.167s93.867-34.167 149.333-34.167c64 0 110.933 68.284 149.333 123.75 17.067 29.867 29.867 46.899 42.667 72.499 8.533 17.067-0.017 34.133-17.084 42.667-110.933 55.467-132.233 234.667-8.499 298.667 21.333 12.8 25.566 38.45 8.499 51.25-46.933 42.667-115.234 76.75-162.167 76.75z" />
<glyph unicode="&#xe908;" glyph-name="Arrow-Drop-Down" d="M371.627 460.373l110.506-110.507c16.64-16.64 43.52-16.64 60.16 0l110.507 110.507c26.88 26.88 7.68 72.96-30.293 72.96h-221.013c-37.973 0-56.747-46.080-29.867-72.96z" />
<glyph unicode="&#xe909;" glyph-name="Arrow-Right" d="M499.627 307.627l110.507 110.507c16.64 16.64 16.64 43.52 0 60.16l-110.507 110.507c-26.88 26.453-72.96 7.68-72.96-30.293v-220.587c0-38.4 46.080-57.173 72.96-30.293z" />
<glyph unicode="&#xe90a;" glyph-name="Block" d="M512 874.667c-235.52 0-426.667-191.147-426.667-426.667s191.147-426.667 426.667-426.667c235.52 0 426.667 191.147 426.667 426.667s-191.147 426.667-426.667 426.667zM170.667 448c0 188.587 152.747 341.333 341.333 341.333 78.933 0 151.467-26.88 209.067-72.107l-478.293-478.293c-45.227 57.6-72.107 130.133-72.107 209.067zM512 106.667c-78.933 0-151.467 26.88-209.067 72.107l478.293 478.293c45.227-57.6 72.107-130.133 72.107-209.067 0-188.587-152.747-341.333-341.333-341.333z" />
<glyph unicode="&#xe90b;" glyph-name="Camera-Alt" d="M512 320c70.694 0 128 57.306 128 128s-57.306 128-128 128c-70.694 0-128-57.306-128-128s57.306-128 128-128zM853.333 789.333h-135.253l-52.907 57.6c-15.787 17.493-38.827 27.733-62.72 27.733h-180.907c-23.893 0-46.933-10.24-63.147-27.733l-52.48-57.6h-135.253c-46.933 0-85.333-38.4-85.333-85.333v-512c0-46.933 38.4-85.333 85.333-85.333h682.667c46.933 0 85.333 38.4 85.333 85.333v512c0 46.933-38.4 85.333-85.333 85.333zM512 234.667c-117.76 0-213.333 95.573-213.333 213.333s95.573 213.333 213.333 213.333c117.76 0 213.333-95.573 213.333-213.333s-95.573-213.333-213.333-213.333z" />
<glyph unicode="&#xe90c;" glyph-name="Card-Payment-Original" d="M981.333 704v-42.667h-640v42.667c0 46.933 38.4 85.333 85.333 85.333h469.333c46.933 0 85.333-38.4 85.333-85.333zM576 405.333c-12.8 0-25.6-4.267-38.4-12.8l-149.333-102.4-21.333-12.8h-25.6c-46.933 0-85.333 38.4-85.333 85.333v170.667c0 25.6-17.067 42.667-42.667 42.667-12.8 0-21.333-4.267-29.867-12.8l-140.8-115.2v-298.667c0-46.933 38.4-85.333 85.333-85.333h298.667l196.267 234.667c8.533 12.8 17.067 25.6 17.067 42.667 0 34.133-29.867 64-64 64zM341.333 576v-213.333l21.333 12.8 123.733 85.333c25.6 17.067 55.467 29.867 89.6 29.867 81.067 0 149.333-68.267 149.333-149.333 0-8.533 0-12.8 0-21.333h170.667c46.933 0 85.333 38.4 85.333 85.333v170.667h-640z" />
<glyph unicode="&#xe90d;" glyph-name="Chat-Bubble" d="M853.333 874.667h-682.667c-46.933 0-85.333-38.4-85.333-85.333v-768l170.667 170.667h597.333c46.933 0 85.333 38.4 85.333 85.333v512c0 46.933-38.4 85.333-85.333 85.333z" />
<glyph unicode="&#xe90e;" glyph-name="Check-Box" d="M810.667 832h-597.333c-46.933 0-85.333-38.4-85.333-85.333v-597.333c0-46.933 38.4-85.333 85.333-85.333h597.333c46.933 0 85.333 38.4 85.333 85.333v597.333c0 46.933-38.4 85.333-85.333 85.333zM456.96 264.96c-16.64-16.64-43.52-16.64-60.16 0l-153.173 153.173c-16.64 16.64-16.64 43.52 0 60.16s43.52 16.64 60.16 0l122.88-122.88 293.547 293.547c16.64 16.64 43.52 16.64 60.16 0s16.64-43.52 0-60.16l-323.413-323.84z" />
<glyph unicode="&#xe90f;" glyph-name="Check-Circle" d="M512 874.667c-235.52 0-426.667-191.147-426.667-426.667s191.147-426.667 426.667-426.667c235.52 0 426.667 191.147 426.667 426.667s-191.147 426.667-426.667 426.667zM396.373 264.96l-153.173 153.173c-16.64 16.64-16.64 43.52 0 60.16s43.52 16.64 60.16 0l123.307-122.88 293.547 293.547c16.64 16.64 43.52 16.64 60.16 0s16.64-43.52 0-60.16l-323.84-323.84c-16.213-16.64-43.52-16.64-60.16 0z" />
<glyph unicode="&#xe910;" glyph-name="Check" d="M384 270.080l-148.053 148.053c-16.64 16.64-43.52 16.64-60.16 0s-16.64-43.52 0-60.16l178.347-178.347c16.64-16.64 43.52-16.64 60.16 0l451.413 451.413c16.64 16.64 16.64 43.52 0 60.16s-43.52 16.64-60.16 0l-421.546-421.12z" />
<glyph unicode="&#xe911;" glyph-name="cheveron-Left" d="M627.627 673.707c-16.64 16.64-43.52 16.64-60.16 0l-195.84-195.84c-16.64-16.64-16.64-43.52 0-60.16l195.84-195.84c16.64-16.64 43.52-16.64 60.16 0s16.64 43.52 0 60.16l-165.547 165.973 165.547 165.547c16.64 16.64 16.213 43.947 0 60.16z" />
<glyph unicode="&#xe912;" glyph-name="cheveron-Right" d="M396.373 673.707c-16.64-16.64-16.64-43.52 0-60.16l165.547-165.547-165.547-165.547c-16.64-16.64-16.64-43.52 0-60.16s43.52-16.64 60.16 0l195.84 195.84c16.64 16.64 16.64 43.52 0 60.16l-195.84 195.84c-16.213 16.213-43.52 16.213-60.16-0.427z" />
<glyph unicode="&#xe913;" glyph-name="Close" d="M780.8 716.373c-16.64 16.64-43.52 16.64-60.16 0l-208.64-208.213-208.64 208.64c-16.64 16.64-43.52 16.64-60.16 0s-16.64-43.52 0-60.16l208.64-208.64-208.64-208.64c-16.64-16.64-16.64-43.52 0-60.16s43.52-16.64 60.16 0l208.64 208.64 208.64-208.64c16.64-16.64 43.52-16.64 60.16 0s16.64 43.52 0 60.16l-208.64 208.64 208.64 208.64c16.213 16.213 16.213 43.52 0 59.733z" />
<glyph unicode="&#xe914;" glyph-name="Create-Original" d="M512 550.4v-85.333c0-8.533 4.267-12.8 12.8-12.8h85.333c4.267 0 8.533 0 8.533 4.267l311.467 311.467-106.667 106.667-311.467-311.467c0-8.533 0-8.533 0-12.8zM1015.467 844.8c12.8 12.8 12.8 29.867 0 38.4l-68.267 68.267c-12.8 12.8-29.867 12.8-38.4 0l-51.2-51.2 106.667-106.667 51.2 51.2zM896 533.333v-384c0-46.933-38.4-85.333-85.333-85.333h-597.333c-46.933 0-85.333 38.4-85.333 85.333v597.333c0 46.933 38.4 85.333 85.333 85.333h448l-170.667-170.667h-277.333v-512h597.333v384c0 25.6 17.067 42.667 42.667 42.667s42.667-17.067 42.667-42.667z" />
<glyph unicode="&#xe915;" glyph-name="Delete-Forever" d="M256 149.333c0-46.933 38.4-85.333 85.333-85.333h341.333c46.933 0 85.333 38.4 85.333 85.333v426.667c0 46.933-38.4 85.333-85.333 85.333h-341.333c-46.933 0-85.333-38.4-85.333-85.333v-426.667zM391.253 483.413c16.64 16.64 43.52 16.64 60.16 0l60.587-60.587 60.587 60.587c16.64 16.64 43.52 16.64 60.16 0s16.64-43.52 0-60.16l-60.587-60.587 60.587-60.587c16.64-16.64 16.64-43.52 0-60.16s-43.52-16.64-60.16 0l-60.587 60.587-60.587-60.587c-16.64-16.64-43.52-16.64-60.16 0s-16.64 43.52 0 60.16l60.587 60.587-60.587 60.587c-16.64 16.213-16.64 43.52 0 60.16zM661.333 789.333l-30.293 30.293c-7.68 7.68-18.773 12.373-29.867 12.373h-178.347c-11.093 0-22.187-4.693-29.867-12.373l-30.293-30.293h-106.667c-23.467 0-42.667-19.2-42.667-42.667s19.2-42.667 42.667-42.667h512c23.467 0 42.667 19.2 42.667 42.667s-19.2 42.667-42.667 42.667h-106.667z" />
<glyph unicode="&#xe916;" glyph-name="Discount-Original" d="M384 618.667c-25.6 0-42.667-17.067-42.667-42.667s17.067-42.667 42.667-42.667c25.6 0 42.667 17.067 42.667 42.667s-17.067 42.667-42.667 42.667zM640 362.667c-25.6 0-42.667-17.067-42.667-42.667s17.067-42.667 42.667-42.667c25.6 0 42.667 17.067 42.667 42.667s-17.067 42.667-42.667 42.667zM925.867 477.867l-76.8 85.333 17.067 115.2c0 25.6-12.8 46.933-34.133 51.2l-110.933 17.067-51.2 102.4c-8.533 21.333-34.133 29.867-55.467 17.067l-102.4-46.933-102.4 51.2c-4.267 4.267-8.533 4.267-12.8 4.267-17.067 0-34.133-8.533-42.667-21.333l-51.2-106.667-110.933-17.067c-21.333-4.267-34.133-29.867-34.133-51.2l17.067-115.2-76.8-85.333c-17.067-17.067-17.067-42.667 0-59.733l76.8-85.333-17.067-115.2c-4.267-25.6 12.8-46.933 34.133-51.2l110.933-17.067 51.2-102.4c8.533-21.333 34.133-29.867 55.467-17.067l102.4 51.2 102.4-51.2c21.333-8.533 46.933 0 55.467 17.067l51.2 102.4 110.933 21.333c21.333 4.267 38.4 25.6 34.133 51.2l-17.067 115.2 76.8 85.333c17.067 12.8 17.067 38.4 0 55.467zM298.667 576c0 46.933 38.4 85.333 85.333 85.333s85.333-38.4 85.333-85.333c0-46.933-38.4-85.333-85.333-85.333s-85.333 38.4-85.333 85.333zM430.933 285.867c-12.8-17.067-34.133-17.067-46.933-8.533s-17.067 29.867-4.267 42.667l217.6 290.133c4.267 8.533 12.8 12.8 21.333 12.8s17.067 0 25.6-4.267c12.8-8.533 17.067-29.867 8.533-42.667l-221.867-290.133zM640 234.667c-46.933 0-85.333 38.4-85.333 85.333s38.4 85.333 85.333 85.333c46.933 0 85.333-38.4 85.333-85.333s-38.4-85.333-85.333-85.333zM426.667 576c0 25.6-17.067 42.667-42.667 42.667s-42.667-17.067-42.667-42.667c0-25.6 17.067-42.667 42.667-42.667s42.667 17.067 42.667 42.667zM384 618.667c-25.6 0-42.667-17.067-42.667-42.667s17.067-42.667 42.667-42.667c25.6 0 42.667 17.067 42.667 42.667s-17.067 42.667-42.667 42.667z" />
<glyph unicode="&#xe917;" glyph-name="Discount-Voucher-Original" d="M938.667 554.667v149.333c0 46.933-38.4 85.333-85.333 85.333h-682.667c-46.933 0-85.333-38.4-85.333-85.333v-149.333c0-12.8 8.533-21.333 17.067-21.333 38.4-8.533 68.267-42.667 68.267-85.333s-29.867-76.8-68.267-85.333c-8.533 0-17.067-8.533-17.067-21.333v-149.333c0-46.933 38.4-85.333 85.333-85.333h682.667c46.933 0 85.333 38.4 85.333 85.333v149.333c0 8.533-8.533 17.067-17.067 21.333-38.4 8.533-68.267 42.667-68.267 85.333s29.867 76.8 68.267 85.333c8.533 0 17.067 8.533 17.067 21.333zM298.667 597.333c0 34.133 29.867 64 64 64s64-29.867 64-64c0-34.133-29.867-64-64-64s-64 29.867-64 64zM392.533 268.8c-17.067-17.067-42.667-17.067-59.733 0s-17.067 42.667 0 59.733l302.933 302.933c17.067 17.067 42.667 17.067 59.733 0s17.067-42.667 0-59.733l-302.933-302.933zM661.333 234.667c-34.133 0-64 29.867-64 64s29.867 64 64 64c34.133 0 64-29.867 64-64s-29.867-64-64-64z" />
<glyph unicode="&#xe918;" glyph-name="Email" d="M853.333 789.333h-682.667c-46.933 0-84.907-38.4-84.907-85.333l-0.427-512c0-46.933 38.4-85.333 85.333-85.333h682.667c46.933 0 85.333 38.4 85.333 85.333v512c0 46.933-38.4 85.333-85.333 85.333zM836.267 608l-301.653-188.587c-13.653-8.533-31.573-8.533-45.227 0l-301.653 188.587c-10.667 6.827-17.067 18.347-17.067 30.72 0 28.587 31.147 45.653 55.467 30.72l285.867-178.773 285.867 178.773c24.32 14.933 55.467-2.133 55.467-30.72 0-12.373-6.4-23.893-17.067-30.72z" />
<glyph unicode="&#xe919;" glyph-name="Expand-Less" d="M481.707 588.373l-195.84-195.84c-16.64-16.64-16.64-43.52 0-60.16s43.52-16.64 60.16 0l165.973 165.547 165.547-165.547c16.64-16.64 43.52-16.64 60.16 0s16.64 43.52 0 60.16l-195.84 195.84c-16.213 16.64-43.52 16.64-60.16 0z" />
<glyph unicode="&#xe91a;" glyph-name="Expand-More" d="M677.547 563.627l-165.547-165.547-165.547 165.547c-16.64 16.64-43.52 16.64-60.16 0s-16.64-43.52 0-60.16l195.84-195.84c16.64-16.64 43.52-16.64 60.16 0l195.84 195.84c16.64 16.64 16.64 43.52 0 60.16-16.64 16.213-43.947 16.64-60.587 0z" />
<glyph unicode="&#xe91b;" glyph-name="Favorite-border" d="M838.827 789.76c-112.64 76.8-251.733 40.96-326.827-46.933-75.093 87.893-214.187 124.16-326.827 46.933-59.733-40.96-97.28-110.080-99.84-183.040-5.973-165.547 140.8-298.24 364.8-501.76l4.267-3.84c32.427-29.44 82.347-29.44 114.773 0.427l4.693 4.267c224 203.093 370.347 335.787 364.8 501.333-2.56 72.533-40.107 141.653-99.84 182.613zM516.267 168.533l-4.267-4.267-4.267 4.267c-203.093 183.893-337.067 305.493-337.067 428.8 0 85.333 64 149.333 149.333 149.333 65.707 0 129.707-42.24 152.32-100.693h79.787c22.187 58.453 86.187 100.693 151.893 100.693 85.333 0 149.333-64 149.333-149.333 0-123.307-133.973-244.907-337.067-428.8z" />
<glyph unicode="&#xe91c;" glyph-name="Favorite" d="M569.6 101.12c-32.427-29.44-82.347-29.44-114.773 0.427l-4.693 4.267c-224 202.667-370.347 335.36-364.8 500.907 2.56 72.533 39.68 142.080 99.84 183.040 112.64 76.8 251.733 40.96 326.827-46.933 75.093 87.893 214.187 124.16 326.827 46.933 60.16-40.96 97.28-110.507 99.84-183.040 5.973-165.547-140.8-298.24-364.8-501.76l-4.267-3.84z" />
<glyph unicode="&#xe91d;" glyph-name="Feedback" d="M853.333 874.667h-682.24c-46.933 0-85.333-38.4-85.333-85.333v-768l170.24 170.667h597.334c46.933 0 85.333 38.4 85.333 85.333v512c0 46.933-38.4 85.333-85.333 85.333zM554.667 362.667h-85.333v85.333h85.333v-85.333zM554.667 576c0-23.467-19.2-42.667-42.667-42.667s-42.667 19.2-42.667 42.667v85.333c0 23.467 19.2 42.667 42.667 42.667s42.667-19.2 42.667-42.667v-85.333z" />
<glyph unicode="&#xe91e;" glyph-name="Filter-Alt" d="M181.333 720.64c98.987-127.147 245.333-315.307 245.333-315.307v-213.333c0-46.933 38.4-85.333 85.334-85.333s85.333 38.4 85.333 85.333v213.333c0 0 146.347 188.16 245.333 315.307 21.76 28.16 1.707 68.693-34.133 68.693h-593.494c-35.413 0-55.467-40.533-33.707-68.693z" />
<glyph unicode="&#xe91f;" glyph-name="Forum" d="M853.333 704h-42.667v-341.333c0-23.467-19.2-42.667-42.667-42.667h-512v-42.667c0-46.933 38.4-85.333 85.333-85.333h426.667l170.667-170.667v597.333c0 46.933-38.4 85.333-85.333 85.333zM725.333 490.667v298.667c0 46.933-38.4 85.333-85.333 85.333h-469.333c-46.933 0-85.333-38.4-85.333-85.333v-554.667l170.667 170.667h384c46.933 0 85.333 38.4 85.333 85.333z" />
<glyph unicode="&#xe920;" glyph-name="Games" d="M640 648.96v183.040c0 23.467-19.2 42.667-42.667 42.667h-170.667c-23.467 0-42.667-19.2-42.667-42.667v-183.040c0-5.547 2.133-11.093 6.4-14.933l106.667-106.667c8.533-8.533 21.76-8.533 30.293 0l106.667 106.667c3.84 3.84 5.973 8.96 5.973 14.933zM311.040 576h-183.040c-23.467 0-42.667-19.2-42.667-42.667v-170.667c0-23.467 19.2-42.667 42.667-42.667h183.040c5.547 0 11.093 2.133 14.933 6.4l106.667 106.667c8.533 8.533 8.533 21.76 0 30.293l-106.667 106.667c-3.84 3.84-8.96 5.973-14.933 5.973zM384 247.040v-183.040c0-23.467 19.2-42.667 42.667-42.667h170.667c23.467 0 42.667 19.2 42.667 42.667v183.040c0 5.547-2.133 11.093-6.4 14.933l-106.667 106.667c-8.533 8.533-21.76 8.533-30.293 0l-106.667-106.667c-3.84-3.84-5.973-8.96-5.973-14.933zM697.6 569.6l-106.667-106.667c-8.533-8.533-8.533-21.76 0-30.293l106.667-106.667c3.84-3.84 9.387-6.4 14.933-6.4h183.467c23.467 0 42.667 19.2 42.667 42.667v170.667c0 23.467-19.2 42.667-42.667 42.667h-183.040c-5.973 0.427-11.093-1.707-15.36-5.973z" />
<glyph unicode="&#xe921;" glyph-name="Get-App" d="M707.84 576h-67.84v213.333c0 23.467-19.2 42.667-42.667 42.667h-170.667c-23.467 0-42.667-19.2-42.667-42.667v-213.333h-67.84c-37.973 0-57.173-46.080-30.293-72.96l195.84-195.84c16.64-16.64 43.52-16.64 60.16 0l195.84 195.84c26.88 26.88 8.107 72.96-29.867 72.96zM213.333 149.333c0-23.467 19.2-42.667 42.667-42.667h512c23.467 0 42.667 19.2 42.667 42.667s-19.2 42.667-42.667 42.667h-512c-23.467 0-42.667-19.2-42.667-42.667z" />
<glyph unicode="&#xe922;" glyph-name="Gift-Original" d="M853.333 704h-93.867c4.267 12.8 8.533 25.6 8.533 42.667 0 72.533-55.467 128-128 128-55.467 0-102.4-34.133-119.467-85.333h-12.8c-21.333 51.2-68.267 85.333-123.733 85.333-72.533 0-128-55.467-128-128 0-17.067 4.267-29.867 8.533-42.667h-93.867c-46.933 0-85.333-38.4-85.333-85.333 0-29.867 17.067-59.733 42.667-72.533v-396.8c0-46.933 38.4-85.333 85.333-85.333h256v426.667c0 25.6 17.067 42.667 42.667 42.667s42.667-17.067 42.667-42.667v-426.667h256c46.933 0 85.333 38.4 85.333 85.333v396.8c25.6 12.8 42.667 42.667 42.667 72.533 0 46.933-38.4 85.333-85.333 85.333zM384 704c-25.6 0-42.667 17.067-42.667 42.667s17.067 42.667 42.667 42.667c25.6 0 42.667-17.067 42.667-42.667s-17.067-42.667-42.667-42.667zM640 704c-25.6 0-42.667 17.067-42.667 42.667s17.067 42.667 42.667 42.667c25.6 0 42.667-17.067 42.667-42.667s-17.067-42.667-42.667-42.667z" />
<glyph unicode="&#xe923;" glyph-name="Group-Add" d="M298.667 533.333h-85.333v85.333c0 23.467-19.2 42.667-42.667 42.667s-42.667-19.2-42.667-42.667v-85.333h-85.333c-23.467 0-42.667-19.2-42.667-42.667s19.2-42.667 42.667-42.667h85.333v-85.333c0-23.467 19.2-42.667 42.667-42.667s42.667 19.2 42.667 42.667v85.333h85.333c23.467 0 42.667 19.2 42.667 42.667s-19.2 42.667-42.667 42.667zM768 490.667c70.827 0 127.573 57.173 127.573 128s-56.747 128-127.573 128c-13.653 0-26.88-2.133-38.827-5.973 24.32-34.56 38.4-76.373 38.4-122.027s-14.507-87.040-38.4-122.027c11.947-3.84 25.173-5.973 38.827-5.973zM554.667 490.667c70.827 0 127.573 57.173 127.573 128s-56.747 128-127.573 128c-70.827 0-128-57.173-128-128s57.173-128 128-128zM554.667 405.333c-85.333 0-256-42.667-256-128v-42.667c0-23.467 19.2-42.667 42.667-42.667h426.667c23.467 0 42.667 19.2 42.667 42.667v42.667c0 85.333-170.667 128-256 128zM837.12 398.507c35.413-31.147 58.88-70.827 58.88-121.173v-64c0-7.253-0.853-14.507-2.133-21.333h108.8c11.947 0 21.333 9.387 21.333 21.333v64c0 65.707-101.12 106.24-186.88 121.173z" />
<glyph unicode="&#xe924;" glyph-name="Hand-Shake-Original" d="M725.333 277.333l-192-192c-38.4-38.4-98.133-38.4-136.533 0l-268.8 234.667h-42.667v384c0 12.8 4.267 21.333 12.8 29.867s17.067 12.8 29.867 12.8h213.333c-25.6-29.867-42.667-64-42.667-106.667s17.067-76.8 42.667-106.667c25.6-25.6 64-42.667 106.667-42.667 51.2 0 98.133 25.6 123.733 68.267l153.6-153.6c29.867-34.133 29.867-93.867 0-128zM896 746.667c-34.133 0-55.467-42.667-85.333-42.667s-170.667 85.333-213.333 85.333c-38.4 0-213.333-85.333-213.333-85.333-21.333-12.8-34.133-34.133-34.133-59.733 0-38.4 29.867-68.267 68.267-68.267 0 0 4.267 0 8.533 0l29.867 12.8 136.533 55.467 260.267-251.733v-72.533h42.667c25.6 0 42.667 17.067 42.667 42.667v337.067c0 0-12.8 46.933-42.667 46.933z" />
<glyph unicode="&#xe925;" glyph-name="Happy-Original" d="M512.038 874.664c-235.646 0-426.665-191.019-426.665-426.668s191.019-426.667 426.665-426.667c235.648 0 426.667 191.019 426.667 426.667 0 235.65-191.019 426.668-426.667 426.668zM661.372 618.664c35.413 0 64-28.587 64-64 0-35.415-28.587-64.002-64-64.002s-64 28.587-64 64.002c0 35.413 28.587 64 64 64zM362.707 618.664c35.413 0 63.998-28.587 63.998-64 0-35.415-28.585-64.002-63.998-64.002s-64 28.587-64 64.002c0 35.413 28.587 64 64 64zM512.038 213.329c-86.697 0-162.046 47.36-202.537 117.205-8.235 14.208 2.347 32.128 18.731 32.128h367.571c16.427 0 26.965-17.92 18.731-32.128-40.448-69.845-115.797-117.205-202.496-117.205z" />
<glyph unicode="&#xe926;" glyph-name="Help" d="M512 874.667c-235.52 0-426.667-191.147-426.667-426.667s191.147-426.667 426.667-426.667c235.52 0 426.667 191.147 426.667 426.667s-191.147 426.667-426.667 426.667zM554.667 149.333h-85.333v85.333h85.333v-85.333zM642.987 480l-38.4-39.253c-21.333-21.76-36.693-41.387-44.373-72.107-3.413-13.653-5.547-29.013-5.547-48.64h-85.333v21.333c0 19.627 3.413 38.4 9.387 55.893 8.533 24.747 22.613 46.933 40.533 64.853l52.907 53.76c19.627 18.773 29.013 46.933 23.467 76.8-5.547 30.72-29.44 56.747-59.307 65.28-47.36 13.227-91.307-13.653-105.387-54.187-5.12-15.787-18.347-27.733-34.987-27.733h-12.8c-24.747 0-41.813 23.893-34.987 47.787 18.347 62.72 71.68 110.507 137.813 120.747 64.853 10.24 126.72-23.467 165.12-76.8 50.347-69.547 35.413-144.213-8.107-187.733z" />
<glyph unicode="&#xe927;" glyph-name="Hint-Original" d="M896 789.333h-682.667c-46.933 0-85.333-38.4-85.333-85.333v-170.667l-68.267-51.2c-8.533-8.533-17.067-21.333-17.067-34.133s8.533-25.6 17.067-34.133l68.267-51.2v-170.667c0-46.933 38.4-85.333 85.333-85.333h682.667c46.933 0 85.333 38.4 85.333 85.333v512c0 46.933-38.4 85.333-85.333 85.333zM682.667 320h-341.333c-25.6 0-42.667 17.067-42.667 42.667s17.067 42.667 42.667 42.667h341.333c25.6 0 42.667-17.067 42.667-42.667s-17.067-42.667-42.667-42.667zM768 490.667h-426.667c-25.6 0-42.667 17.067-42.667 42.667s17.067 42.667 42.667 42.667h426.667c25.6 0 42.667-17.067 42.667-42.667s-17.067-42.667-42.667-42.667z" />
<glyph unicode="&#xe928;" glyph-name="Home" d="M426.666 149.333v213.333h170.668v-213.333c0-23.467 19.2-42.667 42.667-42.667h128c23.467 0 42.667 19.2 42.667 42.667v298.667h72.533c19.627 0 29.013 24.32 14.080 37.12l-356.693 321.28c-16.213 14.507-40.96 14.507-57.173 0l-356.694-321.28c-14.507-12.8-5.547-37.12 14.080-37.12h72.533v-298.667c0-23.467 19.2-42.667 42.667-42.667h128c23.467 0 42.667 19.2 42.667 42.667z" />
<glyph unicode="&#xe929;" glyph-name="Info" d="M512 874.667c-235.52 0-426.667-191.147-426.667-426.667s191.147-426.667 426.667-426.667c235.52 0 426.667 191.147 426.667 426.667s-191.147 426.667-426.667 426.667zM512 234.667c-23.467 0-42.667 19.2-42.667 42.667v170.667c0 23.467 19.2 42.667 42.667 42.667s42.667-19.2 42.667-42.667v-170.667c0-23.467-19.2-42.667-42.667-42.667zM554.667 576h-85.333v85.333h85.333v-85.333z" />
<glyph unicode="&#xe92a;" glyph-name="Insert-Photo" d="M896 149.333v597.333c0 46.933-38.4 85.333-85.333 85.333h-597.333c-46.933 0-85.333-38.4-85.333-85.333v-597.333c0-46.933 38.4-85.333 85.333-85.333h597.333c46.933 0 85.333 38.4 85.333 85.333zM379.733 363.52l89.6-107.947 132.267 170.24c8.533 11.093 25.6 11.093 34.133-0.427l149.76-199.68c10.667-14.080 0.427-34.133-17.067-34.133h-511.573c-17.92 0-27.733 20.48-16.64 34.56l106.24 136.533c8.107 11.093 24.32 11.52 33.28 0.853z" />
<glyph unicode="&#xe92b;" glyph-name="Job-Seeker-Original" d="M469.333 277.333v-170.667h-298.667c-46.933 0-85.333 38.4-85.333 85.333v119.467c21.333-21.333 51.2-34.133 85.333-34.133h298.667zM1011.2-51.2c-17.067-17.067-42.667-17.067-59.733 0l-64 64c-81.067-55.467-196.267-46.933-268.8 25.6-85.333 85.333-85.333 217.6 0 302.933s217.6 85.333 302.933 0c72.533-72.533 81.067-187.733 25.6-268.8l64-64c17.067-12.8 17.067-42.667 0-59.733zM861.867 102.4c51.2 51.2 51.2 132.267 0 179.2s-132.267 51.2-179.2 0c-46.933-51.2-51.2-132.267 0-179.2s128-51.2 179.2 0zM938.667 704v-268.8c-46.933 34.133-106.667 55.467-170.667 55.467-102.4 0-192-51.2-243.2-128h-354.133c-46.933 0-85.333 38.4-85.333 85.333v256c0 46.933 38.4 85.333 85.333 85.333h213.333c0 25.6 17.067 42.667 42.667 42.667h170.667c25.6 0 42.667-17.067 42.667-42.667h213.333c46.933 0 85.333-38.4 85.333-85.333zM554.667 490.667c0 25.6-17.067 42.667-42.667 42.667s-42.667-17.067-42.667-42.667c0-25.6 17.067-42.667 42.667-42.667s42.667 17.067 42.667 42.667z" />
<glyph unicode="&#xe92c;" glyph-name="Language" d="M511.573 874.667c-235.52 0-426.24-191.147-426.24-426.667s190.72-426.667 426.24-426.667c235.947 0 427.093 191.147 427.093 426.667s-191.147 426.667-427.093 426.667zM807.253 618.667h-125.867c-13.653 53.333-33.28 104.533-58.88 151.893 78.507-26.88 143.787-81.493 184.747-151.893zM512 787.627c35.413-51.2 63.147-107.947 81.493-168.96h-162.987c18.347 61.013 46.080 117.76 81.493 168.96zM181.76 362.667c-6.827 27.307-11.093 55.893-11.093 85.333s4.267 58.027 11.093 85.333h144.213c-3.413-28.16-5.973-56.32-5.973-85.333s2.56-57.173 5.973-85.333h-144.213zM216.747 277.333h125.867c13.653-53.333 33.28-104.533 58.88-151.893-78.507 26.88-143.787 81.067-184.747 151.893zM342.613 618.667h-125.867c40.96 70.827 106.24 125.013 184.747 151.893-25.6-47.36-45.227-98.56-58.88-151.893zM512 108.373c-35.413 51.2-63.147 107.947-81.493 168.96h162.987c-18.347-61.013-46.080-117.76-81.493-168.96zM611.84 362.667h-199.68c-3.84 28.16-6.827 56.32-6.827 85.333s2.987 57.6 6.827 85.333h199.68c3.84-27.733 6.827-56.32 6.827-85.333s-2.987-57.173-6.827-85.333zM622.507 125.44c25.6 47.36 45.227 98.56 58.88 151.893h125.867c-40.96-70.4-106.24-125.013-184.747-151.893zM698.027 362.667c3.413 28.16 5.973 56.32 5.973 85.333s-2.56 57.173-5.973 85.333h144.213c6.827-27.307 11.093-55.893 11.093-85.333s-4.267-58.027-11.093-85.333h-144.213z" />
<glyph unicode="&#xe92d;" glyph-name="Live-Help" d="M810.667 874.667h-597.333c-47.36 0-85.333-38.4-85.333-85.333v-597.333c0-46.933 38.4-85.333 85.333-85.333h170.667l97.707-97.707c16.64-16.64 43.52-16.64 60.16 0l98.133 97.707h170.667c46.933 0 85.333 38.4 85.333 85.333v597.333c0 46.933-38.4 85.333-85.333 85.333zM554.667 192h-85.333v85.333h85.333v-85.333zM642.987 522.667l-38.4-39.253c-24.747-25.173-42.24-46.933-47.787-87.893-2.56-18.347-17.493-32.427-36.267-32.427h-13.227c-22.187 0-39.253 19.627-36.267 41.813 4.693 38.827 22.613 73.387 48.64 99.84l52.907 53.76c15.36 15.36 24.747 36.693 24.747 60.16 0 46.933-38.4 85.333-85.333 85.333-37.12 0-69.12-24.32-80.64-57.6-5.547-15.787-18.773-27.307-35.413-27.307h-12.8c-24.747 0-41.813 23.893-34.987 47.787 20.907 70.827 86.187 122.453 163.84 122.453 94.293 0 170.667-76.373 170.667-170.667 0-37.547-15.36-71.68-39.68-96z" />
<glyph unicode="&#xe92e;" glyph-name="Lock" d="M768 618.667h-42.667v85.333c0 117.76-95.573 213.333-213.333 213.333s-213.333-95.573-213.333-213.333v-85.333h-42.667c-46.933 0-85.333-38.4-85.333-85.333v-426.667c0-46.933 38.4-85.333 85.333-85.333h512c46.933 0 85.333 38.4 85.333 85.333v426.667c0 46.933-38.4 85.333-85.333 85.333zM512 234.667c-46.933 0-85.333 38.4-85.333 85.333s38.4 85.333 85.333 85.333c46.933 0 85.333-38.4 85.333-85.333s-38.4-85.333-85.333-85.333zM384 618.667v85.333c0 70.827 57.173 128 128 128s128-57.173 128-128v-85.333h-256z" />
<glyph unicode="&#xe92f;" glyph-name="Login" d="M439.467 631.467c-16.64-16.64-16.64-43.093 0-59.733l81.067-81.067h-392.533c-23.467 0-42.667-19.2-42.667-42.667s19.2-42.667 42.667-42.667h392.533l-81.067-81.067c-16.64-16.64-16.64-43.093 0-59.733s43.093-16.64 59.733 0l153.173 153.173c16.64 16.64 16.64 43.52 0 60.16l-153.173 153.6c-16.64 16.64-43.093 16.64-59.733 0zM853.333 149.333h-298.667c-23.467 0-42.667-19.2-42.667-42.667s19.2-42.667 42.667-42.667h298.667c46.933 0 85.333 38.4 85.333 85.333v597.333c0 46.933-38.4 85.333-85.333 85.333h-298.667c-23.467 0-42.667-19.2-42.667-42.667s19.2-42.667 42.667-42.667h298.667v-597.333z" />
<glyph unicode="&#xe930;" glyph-name="Menu" d="M170.667 192h682.667c23.467 0 42.667 19.2 42.667 42.667s-19.2 42.667-42.667 42.667h-682.667c-23.467 0-42.667-19.2-42.667-42.667s19.2-42.667 42.667-42.667zM170.667 405.333h682.667c23.467 0 42.667 19.2 42.667 42.667s-19.2 42.667-42.667 42.667h-682.667c-23.467 0-42.667-19.2-42.667-42.667s19.2-42.667 42.667-42.667zM128 661.333c0-23.467 19.2-42.667 42.667-42.667h682.667c23.467 0 42.667 19.2 42.667 42.667s-19.2 42.667-42.667 42.667h-682.667c-23.467 0-42.667-19.2-42.667-42.667z" />
<glyph unicode="&#xe931;" glyph-name="Mobile-With-Attach-Money-Original-1" d="M520.533 477.867c-59.733 17.067-76.8 29.867-76.8 55.467 0 29.866 25.6 46.933 68.267 46.933 38.4 0 55.467-12.8 59.733-34.133 4.267-8.533 12.8-17.066 21.333-17.066h8.533c17.067 0 29.867 17.066 21.333 34.133-12.8 29.867-34.133 55.467-76.8 64v12.8c0 21.333-17.067 38.4-38.4 38.4s-34.133-17.067-34.133-38.4v-17.067c-51.2-8.533-89.6-42.667-89.6-93.866 0-59.733 46.933-89.6 119.467-106.667 64-17.067 76.8-38.4 76.8-59.733 0-17.067-12.8-46.933-68.267-46.933-42.667 0-64 17.067-72.533 38.4-4.267 8.533-12.8 17.067-21.333 17.067h-8.533c-17.067 0-29.867-17.067-21.333-34.133 12.8-34.133 46.933-55.467 85.333-64v-17.067c0-21.333 17.067-38.4 38.4-38.4s38.4 17.067 38.4 38.4v17.067c51.2 8.533 89.6 38.4 89.6 89.6 0 72.533-64 98.133-119.467 115.2zM725.333 913.066h-426.667c-46.933 0-85.333-38.4-85.333-85.333v-763.733c0-46.933 38.4-85.333 85.333-85.333h426.667c46.933 0 85.333 38.4 85.333 85.333v763.733c0 46.933-38.4 85.333-85.333 85.333zM725.333 149.333h-426.667v593.066h426.667v-593.066z" />
<glyph unicode="&#xe932;" glyph-name="More-Horizontal" d="M256 533.333c-46.933 0-85.333-38.4-85.333-85.333s38.4-85.333 85.333-85.333c46.933 0 85.333 38.4 85.333 85.333s-38.4 85.333-85.333 85.333zM768 533.333c-46.933 0-85.333-38.4-85.333-85.333s38.4-85.333 85.333-85.333c46.933 0 85.333 38.4 85.333 85.333s-38.4 85.333-85.333 85.333zM512 533.333c-46.933 0-85.333-38.4-85.333-85.333s38.4-85.333 85.333-85.333c46.933 0 85.333 38.4 85.333 85.333s-38.4 85.333-85.333 85.333z" />
<glyph unicode="&#xe933;" glyph-name="More-Vertical" d="M512 618.667c46.933 0 85.333 38.4 85.333 85.333s-38.4 85.333-85.333 85.333c-46.933 0-85.333-38.4-85.333-85.333s38.4-85.333 85.333-85.333zM512 533.333c-46.933 0-85.333-38.4-85.333-85.333s38.4-85.333 85.333-85.333c46.933 0 85.333 38.4 85.333 85.333s-38.4 85.333-85.333 85.333zM512 277.333c-46.933 0-85.333-38.4-85.333-85.333s38.4-85.333 85.333-85.333c46.933 0 85.333 38.4 85.333 85.333s-38.4 85.333-85.333 85.333z" />
<glyph unicode="&#xe934;" glyph-name="Notifications" d="M512 21.333c46.933 0 85.333 38.4 85.333 85.333h-170.667c0-46.933 37.974-85.333 85.334-85.333zM768 277.333v213.333c0 130.987-69.973 240.64-192 269.653v29.013c0 35.413-28.587 64-64 64s-64-28.587-64-64v-29.013c-122.454-29.013-192-138.24-192-269.653v-213.333l-55.040-55.040c-26.88-26.88-8.107-72.96 29.867-72.96h561.92c37.973 0 57.173 46.080 30.293 72.96l-55.040 55.040z" />
<glyph unicode="&#xe935;" glyph-name="Online-Banking-Original" d="M904.533 708.267c-59.733 17.067-76.8 29.867-76.8 55.467 0 29.867 25.6 46.933 68.267 46.933 38.4 0 55.467-12.8 59.733-34.133 4.267-8.533 12.8-17.067 21.333-17.067h8.533c17.067 0 29.867 17.067 21.333 34.133-12.8 29.867-34.133 55.467-76.8 64v12.8c0 21.333-17.067 38.4-38.4 38.4s-34.133-17.067-34.133-38.4v-17.067c-51.2-8.533-89.6-42.667-89.6-93.867 0-59.733 46.933-89.6 119.467-106.667 64-17.067 76.8-38.4 76.8-59.733 0-17.067-12.8-46.933-68.267-46.933-42.667 0-64 17.067-72.533 38.4-4.267 8.533-12.8 17.067-21.333 17.067h-8.533c-17.067 0-29.867-17.067-21.333-34.133 12.8-34.133 46.933-55.467 85.333-64v-17.067c0-21.333 17.067-38.4 38.4-38.4s38.4 17.067 38.4 38.4v17.067c51.2 8.533 89.6 38.4 89.6 89.6 0 72.533-64 98.133-119.467 115.2zM1024 149.333c0-25.6-17.067-42.667-42.667-42.667h-938.667c-25.6 0-42.667 17.067-42.667 42.667s17.067 42.667 42.667 42.667h128c-46.933 0-85.333 38.4-85.333 85.333v426.667c0 46.933 38.4 85.333 85.333 85.333h469.333c25.6 0 42.667-17.067 42.667-42.667s-17.067-42.667-42.667-42.667h-469.333v-426.667h682.667v42.667c0 17.067 8.533 34.133 25.6 38.4 4.267 4.267 12.8 4.267 17.067 4.267 25.6 0 42.667-17.067 42.667-42.667v-42.667c0-46.933-38.4-85.333-85.333-85.333h128c25.6 0 42.667-17.067 42.667-42.667z" />
<glyph unicode="&#xe936;" glyph-name="Person" d="M512 448c94.293 0 170.667 76.373 170.667 170.667s-76.373 170.667-170.667 170.667c-94.293 0-170.667-76.373-170.667-170.667s76.373-170.667 170.667-170.667zM512 362.667c-113.92 0-341.333-57.173-341.333-170.667v-42.667c0-23.467 19.2-42.667 42.667-42.667h597.333c23.467 0 42.667 19.2 42.667 42.667v42.667c0 113.493-227.413 170.667-341.333 170.667z" />
<glyph unicode="&#xe937;" glyph-name="Photo-Camera" d="M512 320c70.694 0 128 57.306 128 128s-57.306 128-128 128c-70.694 0-128-57.306-128-128s57.306-128 128-128zM853.333 789.333h-135.253l-52.907 57.6c-15.787 17.493-38.827 27.733-62.72 27.733h-180.907c-23.893 0-46.933-10.24-63.147-27.733l-52.48-57.6h-135.253c-46.933 0-85.333-38.4-85.333-85.333v-512c0-46.933 38.4-85.333 85.333-85.333h682.667c46.933 0 85.333 38.4 85.333 85.333v512c0 46.933-38.4 85.333-85.333 85.333zM512 234.667c-117.76 0-213.333 95.573-213.333 213.333s95.573 213.333 213.333 213.333c117.76 0 213.333-95.573 213.333-213.333s-95.573-213.333-213.333-213.333z" />
<glyph unicode="&#xe938;" glyph-name="Processing-Original" d="M516.267 878.933c-217.6 4.267-396.8-170.667-396.8-384 0-89.6 29.867-170.667 81.067-234.667 17.067-21.333 46.933-21.333 64-4.267s17.067 38.4 4.267 55.467c-38.4 51.2-64 115.2-64 183.467 0 166.4 136.533 298.667 302.934 298.667 157.867 0 290.133-136.533 294.4-294.4 0-166.4-132.267-302.933-298.667-302.933v76.8c0 21.333-21.333 29.867-38.4 17.067l-119.467-119.467c-4.267-8.533-4.267-21.333 4.267-29.867l119.467-119.467c12.8-12.8 38.4-4.267 38.4 17.067v76.8c213.333 0 388.267 179.2 384 396.8-8.533 196.267-174.933 362.667-375.467 366.933zM460.8 661.333c-21.333 0-34.133-12.8-34.133-34.133v-157.867c0-17.067 8.533-29.867 21.333-38.4l132.267-81.067c17.067-8.533 34.133-4.267 42.667 12.8s4.267 34.133-12.8 42.667l-123.733 72.533v153.6c4.267 17.067-8.533 29.867-25.6 29.867z" />
<glyph unicode="&#xe939;" glyph-name="Receipt-Long" d="M597.333 576h-170.667c-23.467 0-42.667 19.2-42.667 42.667s19.2 42.667 42.667 42.667h170.667c23.467 0 42.667-19.2 42.667-42.667s-19.2-42.667-42.667-42.667zM597.333 448h-170.667c-23.467 0-42.667 19.2-42.667 42.667s19.2 42.667 42.667 42.667h170.667c23.467 0 42.667-19.2 42.667-42.667s-19.2-42.667-42.667-42.667zM832 810.667l-64 64-64-64-64 64-64-64-64 64-64-64-64 64-64-64-64 64v-597.333h-85.333c-23.467 0-42.667-19.2-42.667-42.667v-85.333c0-70.827 57.173-128 128-128h512c70.827 0 128 57.173 128 128v725.333l-64-64zM640 106.667h-384c-23.467 0-42.667 19.2-42.667 42.667v42.667h426.667v-85.333zM810.667 149.333c0-23.467-19.2-42.667-42.667-42.667s-42.667 19.2-42.667 42.667v85.333c0 23.467-19.2 42.667-42.667 42.667h-341.333v469.333h469.333v-597.333zM725.333 576c23.565 0 42.667 19.103 42.667 42.667s-19.102 42.667-42.667 42.667c-23.565 0-42.667-19.103-42.667-42.667s19.102-42.667 42.667-42.667zM725.333 448c23.565 0 42.667 19.102 42.667 42.667s-19.102 42.667-42.667 42.667c-23.565 0-42.667-19.102-42.667-42.667s19.102-42.667 42.667-42.667z" />
<glyph unicode="&#xe93a;" glyph-name="Report" d="M653.653 832h-283.307c-11.093 0-22.187-4.693-29.867-12.373l-200.107-200.107c-7.68-7.68-12.373-18.773-12.373-29.867v-282.88c0-11.52 4.693-22.187 12.373-30.293l199.68-199.68c8.107-8.107 19.2-12.8 30.293-12.8h282.88c11.52 0 22.187 4.693 30.293 12.373l199.68 199.68c8.107 8.107 12.373 18.773 12.373 30.293v283.307c0 11.52-4.693 22.187-12.373 30.293l-199.68 199.68c-7.68 7.68-18.773 12.373-29.867 12.373zM512 221.867c-30.72 0-55.467 24.747-55.467 55.467s24.747 55.467 55.467 55.467c30.72 0 55.467-24.747 55.467-55.467s-24.747-55.467-55.467-55.467zM512 405.333c-23.467 0-42.667 19.2-42.667 42.667v170.667c0 23.467 19.2 42.667 42.667 42.667s42.667-19.2 42.667-42.667v-170.667c0-23.467-19.2-42.667-42.667-42.667z" />
<glyph unicode="&#xe93b;" glyph-name="Reseller-Original" d="M861.867 38.4c-38.4-29.867-89.6-21.333-119.467 17.067-17.067 25.6-21.333 55.467-8.533 85.333l-102.4 136.533h-76.8v-98.133c25.6-12.8 42.667-42.667 42.667-72.533 0-46.933-38.4-85.333-85.333-85.333s-85.333 38.4-85.333 85.333c0 29.867 17.067 59.733 42.667 72.533v98.133h-72.533l-102.4-136.533c12.8-25.6 8.533-59.733-8.533-85.333-29.867-38.4-81.067-46.933-119.467-17.067s-46.933 81.067-17.067 119.467c17.067 25.6 51.2 38.4 76.8 34.133l64 85.333h-38.4c-21.333 0-38.4 17.067-38.4 38.4v38.4c0 98.133 200.533 149.333 298.667 149.333s298.667-51.2 298.667-149.333v-38.4c0-21.333-17.067-38.4-38.4-38.4h-38.4l64-85.333c29.867 4.267 59.733-8.533 76.8-34.133 34.133-38.4 25.6-89.6-12.8-119.467zM661.333 725.333c0-81.067-68.267-149.333-149.333-149.333s-149.333 68.267-149.333 149.333c0 81.067 68.267 149.333 149.333 149.333s149.333-68.267 149.333-149.333z" />
<glyph unicode="&#xe93c;" glyph-name="Search" d="M661.333 362.667h-33.707l-11.947 11.52c51.2 59.733 77.653 141.227 63.147 227.84-20.053 118.613-119.040 213.333-238.507 227.84-180.48 22.187-332.372-129.707-310.186-310.187 14.507-119.467 109.227-218.453 227.84-238.507 86.612-14.507 168.106 11.947 227.839 63.147l11.52-11.947v-33.707l181.333-181.333c17.493-17.493 46.080-17.493 63.573 0s17.493 46.080 0 63.573l-180.907 181.76zM405.334 362.667c-106.24 0-192 85.76-192 192s85.76 192 192 192c106.239 0 191.999-85.76 191.999-192s-85.76-192-191.999-192z" />
<glyph unicode="&#xe93d;" glyph-name="Share" d="M768 273.92c-32.427 0-61.44-12.8-83.627-32.853l-304.213 177.067c2.133 9.813 3.84 19.627 3.84 29.867s-1.707 20.053-3.84 29.867l300.8 175.36c23.040-21.333 53.333-34.56 87.040-34.56 70.827 0 128 57.173 128 128s-57.173 128-128 128c-70.827 0-128-57.173-128-128 0-10.24 1.707-20.053 3.84-29.867l-300.8-175.36c-23.040 21.333-53.333 34.56-87.040 34.56-70.827 0-128-57.173-128-128s57.173-128 128-128c33.707 0 64 13.227 87.040 34.56l303.787-177.493c-2.133-8.96-3.413-18.347-3.413-27.733 0-68.693 55.893-124.587 124.587-124.587s124.587 55.893 124.587 124.587c0 68.693-55.893 124.587-124.587 124.587z" />
<glyph unicode="&#xe93e;" glyph-name="Shop-Original" d="M853.333 789.333c0-25.6-17.067-42.667-42.667-42.667h-597.333c-25.6 0-42.667 17.067-42.667 42.667s17.067 42.667 42.667 42.667h597.333c25.6 0 42.667-17.067 42.667-42.667zM938.667 384c0 8.533 0 17.067-4.267 25.6 0 0-72.533 196.267-81.067 221.867s-21.333 29.867-42.667 29.867h-597.333c-17.067 0-34.133-12.8-38.4-29.867l-85.333-226.133c-4.267-8.533-4.267-12.8-4.267-21.333 0-29.867 17.067-51.2 42.667-59.733v-217.6c0-25.6 17.067-42.667 42.667-42.667h341.333c25.6 0 42.667 17.067 42.667 42.667v213.333h256v-213.333c0-25.6 17.067-42.667 42.667-42.667s42.667 17.067 42.667 42.667v217.6c25.6 8.533 42.667 29.867 42.667 59.733zM469.333 149.333h-256v170.667h256v-170.667z" />
<glyph unicode="&#xe93f;" glyph-name="Star-Border" d="M838.4 574.293l-206.507 17.92-80.64 189.867c-14.507 34.56-64 34.56-78.507 0l-80.64-190.293-206.080-17.493c-37.547-2.987-52.907-49.92-24.32-74.667l156.587-135.68-46.933-201.387c-8.533-36.693 31.147-65.707 63.573-46.080l177.067 106.667 177.067-107.093c32.427-19.627 72.107 9.387 63.573 46.080l-46.933 201.813 156.587 135.68c28.587 24.747 13.653 71.68-23.893 74.667zM512 302.933l-160.427-96.853 42.667 182.613-141.653 122.88 186.88 16.213 72.533 171.947 72.96-172.373 186.88-16.213-141.653-122.88 42.667-182.613-160.853 97.28z" />
<glyph unicode="&#xe940;" glyph-name="Star" d="M512 223.147l177.067-107.093c32.427-19.627 72.107 9.387 63.573 46.080l-46.933 201.387 156.587 135.68c28.587 24.747 13.227 71.68-24.32 74.667l-206.080 17.493-80.64 190.294c-14.507 34.56-64 34.56-78.507 0l-80.64-189.867-206.080-17.493c-37.547-2.987-52.907-49.92-24.32-74.667l156.587-135.68-46.933-201.387c-8.533-36.693 31.147-65.707 63.573-46.080l177.067 106.667z" />
<glyph unicode="&#xe941;" glyph-name="Support-Agent" d="M896 438.613c0 234.24-181.76 393.387-384 393.387-200.107 0-384-155.733-384-395.947-25.6-14.507-42.667-41.813-42.667-73.387v-85.333c0-46.933 38.4-85.333 85.333-85.333 23.467 0 42.667 19.2 42.667 42.667v205.227c0 163.413 125.867 306.347 289.28 311.040 168.96 5.12 308.053-130.56 308.053-298.667v-302.933h-298.667c-23.467 0-42.667-19.2-42.667-42.667s19.2-42.667 42.667-42.667h298.667c46.933 0 85.333 38.4 85.333 85.333v52.053c25.173 13.227 42.667 39.253 42.667 69.973v98.133c0 29.867-17.493 55.893-42.667 69.12zM384 362.667c23.564 0 42.667 19.102 42.667 42.667s-19.103 42.667-42.667 42.667c-23.564 0-42.667-19.102-42.667-42.667s19.103-42.667 42.667-42.667zM640 362.667c23.565 0 42.667 19.102 42.667 42.667s-19.102 42.667-42.667 42.667c-23.565 0-42.667-19.102-42.667-42.667s19.102-42.667 42.667-42.667zM768 489.387c-20.48 121.6-126.293 214.613-253.867 214.613-129.28 0-268.373-107.093-257.28-275.2 105.387 43.093 184.747 136.96 207.36 251.307 55.893-112.213 170.667-189.44 303.787-190.72z" />
<glyph unicode="&#xe942;" glyph-name="Trophy" d="M810.667 746.667h-85.333v42.667c0 23.467-19.2 42.667-42.667 42.667h-341.333c-23.467 0-42.667-19.2-42.667-42.667v-42.667h-85.333c-46.933 0-85.333-38.4-85.333-85.333v-42.667c0-108.8 81.92-197.547 187.307-210.773 26.88-64 84.48-112.213 154.027-126.293v-132.267h-128c-23.467 0-42.667-19.2-42.667-42.667s19.2-42.667 42.667-42.667h341.333c23.467 0 42.667 19.2 42.667 42.667s-19.2 42.667-42.667 42.667h-128v132.267c69.547 14.080 127.147 62.293 154.027 126.293 105.387 13.227 187.307 101.973 187.307 210.773v42.667c0 46.933-38.4 85.333-85.333 85.333zM213.333 618.667v42.667h85.333v-162.987c-49.493 17.92-85.333 64.853-85.333 120.32zM810.667 618.667c0-55.467-35.84-102.4-85.333-120.32v162.987h85.333v-42.667z" />
<glyph unicode="&#xe943;" glyph-name="Verified-User" d="M477.44 901.973l-298.667-132.693c-30.72-13.653-50.773-44.373-50.773-78.080v-200.533c0-236.8 163.84-458.24 384-512 220.16 53.76 384 275.2 384 512v200.533c0 33.707-20.053 64.427-50.773 78.080l-298.667 132.693c-21.76 9.813-47.36 9.813-69.12 0zM396.373 264.96l-110.507 110.507c-16.64 16.64-16.64 43.52 0 60.16s43.52 16.64 60.16 0l80.64-80.213 250.88 250.88c16.64 16.64 43.52 16.64 60.16 0s16.64-43.52 0-60.16l-281.173-281.173c-16.213-16.64-43.52-16.64-60.16 0z" />
<glyph unicode="&#xe944;" glyph-name="Visibility-Off" d="M512 682.667c117.76 0 213.333-95.573 213.333-213.334 0-21.76-4.267-42.667-10.24-62.293l130.56-130.56c59.307 52.48 106.24 118.187 135.68 193.28-73.813 186.88-256 319.574-469.333 319.574-54.187 0-106.24-8.533-155.307-24.32l92.587-92.587c20.053 5.973 40.96 10.24 62.72 10.24zM115.627 825.174c-16.64-16.64-16.64-43.52 0-60.16l84.053-84.053c-69.12-55.040-124.16-127.573-157.013-211.627 73.813-187.307 256-320 469.333-320 64.853 0 126.72 12.8 183.893 34.987l116.053-116.053c16.64-16.64 43.52-16.64 60.16 0s16.64 43.52 0 60.16l-695.893 696.747c-16.64 16.64-43.947 16.64-60.587 0zM512 256c-117.76 0-213.333 95.573-213.333 213.333 0 32.853 7.68 64 20.907 91.307l66.987-66.987c-1.28-7.68-2.56-15.787-2.56-24.32 0-70.827 57.173-128 128-128 8.533 0 16.213 1.28 24.32 2.987l66.987-66.987c-27.733-13.653-58.453-21.333-91.307-21.333zM638.72 483.413c-6.4 59.734-53.333 106.24-112.64 112.64l112.64-112.64z" />
<glyph unicode="&#xe945;" glyph-name="Visibility" d="M512 789.333c-213.333 0-395.52-132.693-469.333-320 73.813-187.307 256-320 469.333-320s395.52 132.693 469.333 320c-73.813 187.307-256 320-469.333 320zM512 256c-117.76 0-213.333 95.573-213.333 213.333s95.573 213.333 213.333 213.333c117.76 0 213.333-95.573 213.333-213.333s-95.573-213.333-213.333-213.333zM512 597.333c-70.827 0-128-57.173-128-128s57.173-128 128-128c70.827 0 128 57.173 128 128s-57.173 128-128 128z" />
<glyph unicode="&#xe946;" glyph-name="Wallet-Original" d="M810.667 661.333h-554.667c-25.6 0-42.667 17.067-42.667 42.667s17.067 42.667 42.667 42.667h554.667c25.6 0 42.667 17.067 42.667 42.667s-17.067 42.667-42.667 42.667h-554.667c-72.533 0-128-55.467-128-128v-554.667c0-46.933 38.4-85.333 85.333-85.333h597.333c46.933 0 85.333 38.4 85.333 85.333v426.667c0 46.933-38.4 85.333-85.333 85.333zM768 320c-25.6 0-42.667 17.067-42.667 42.667s17.067 42.667 42.667 42.667c25.6 0 42.667-17.067 42.667-42.667s-17.067-42.667-42.667-42.667z" />
<glyph unicode="&#xe947;" glyph-name="cheveron-outline-down" d="M1024 448c0-282.784-229.216-512-512-512s-512 229.216-512 512v0c0 282.784 229.216 512 512 512s512-229.216 512-512v0zM512 857.6c-226.208 0-409.6-183.392-409.6-409.6s183.392-409.6 409.6-409.6v0c226.208 0 409.6 183.392 409.6 409.6s-183.392 409.6-409.6 409.6v0zM476.16 317.952l-181.76 181.248 72.192 72.192 145.408-143.872 144.896 144.384 72.192-72.704-217.088-217.088-35.84 35.84z" />
<glyph unicode="&#xe948;" glyph-name="cheveron-outline-left" d="M512-64c-282.784 0-512 229.216-512 512s229.216 512 512 512v0c282.784 0 512-229.216 512-512s-229.216-512-512-512v0zM921.6 448c0 226.208-183.392 409.6-409.6 409.6s-409.6-183.392-409.6-409.6v0c0-226.208 183.392-409.6 409.6-409.6s409.6 183.392 409.6 409.6v0zM381.952 483.84l181.248 181.76 72.192-72.192-143.872-145.408 144.384-144.896-72.704-72.192-217.088 217.088 35.84 35.84z" />
<glyph unicode="&#xe949;" glyph-name="cheveron-outline-right" d="M512 960c282.784 0 512-229.216 512-512s-229.216-512-512-512v0c-282.784 0-512 229.216-512 512s229.216 512 512 512v0zM102.4 448c0-226.208 183.392-409.6 409.6-409.6s409.6 183.392 409.6 409.6v0c0 226.208-183.392 409.6-409.6 409.6s-409.6-183.392-409.6-409.6v0zM642.048 412.16l-181.248-181.76-72.192 72.192 143.872 145.408-143.36 144.896 71.68 72.192 217.088-217.088-35.84-35.84z" />
<glyph unicode="&#xe94a;" glyph-name="cheveron-outline-up" d="M0 448c0 282.784 229.216 512 512 512s512-229.216 512-512v0c0-282.784-229.216-512-512-512s-512 229.216-512 512v0zM512 38.4c226.208 0 409.6 183.392 409.6 409.6s-183.392 409.6-409.6 409.6v0c-226.208 0-409.6-183.392-409.6-409.6s183.392-409.6 409.6-409.6v0zM547.84 578.048l181.76-181.248-72.192-72.192-145.408 143.872-144.896-143.36-72.192 71.68 217.088 217.088 35.84-35.84z" />
</font>
</defs>
</svg>
